<?xml version="1.0" encoding="utf-8"?>
<!-- Generator: Adobe Illustrator 19.2.0, SVG Export Plug-In . SVG Version: 6.00 Build 0)  -->
<svg version="1.1" id="behance" xmlns="http://www.w3.org/2000/svg" xmlns:xlink="http://www.w3.org/1999/xlink" x="0px" y="0px"
	 viewBox="0 0 203.1933 124.0272" enable-background="new 0 0 203.1933 124.0272" xml:space="preserve">
<g>
	<path fill="none" d="M63.9608,44.6444c3.1232-2.2188,4.6448-5.8748,4.6448-10.8984c0-2.7888-0.508-5.0936-1.5216-6.8868
		c-1.0488-1.7888-2.4296-3.1872-4.1836-4.164c-1.7384-1.0196-3.7088-1.7224-5.9748-2.1052c-2.25-0.426-4.5876-0.59-6.994-0.59H24v28
		h28C56.8204,48,60.8068,46.8908,63.9608,44.6444z"/>
	<path fill="none" d="M52.5372,68H24v36h28c2.6756,0,5.2284-0.254,7.6172-0.8204c2.4376-0.5624,4.582-1.4568,6.3944-2.7732
		c1.8244-1.2696,3.3284-3.008,4.424-5.2148c1.1016-2.1916,1.6268-5.0392,1.6268-8.4768c0-6.7304-1.8008-11.5156-5.3516-14.4256
		C63.1444,69.4256,58.3888,68,52.5372,68z"/>
	<path fill="none" d="M158.9452,48.3124c-3.916,0-7.164,0.6956-9.7576,2.1016c-2.5468,1.3908-4.6212,3.1132-6.2248,5.1524
		c-1.58,2.0664-2.658,4.25-3.2872,6.586c-0.6288,2.2772-1.0076,4.3396-1.1132,6.16h39.926
		c-0.594-6.5508-2.7288-11.3868-5.6604-14.7968C169.914,50.1444,164.9784,48.3124,158.9452,48.3124z"/>
	<path fill="#4A8F9E" d="M79.3768,56.5584c5.5664-2.652,9.7464-6.0624,12.59-10.2224c2.8104-4.172,4.2208-9.3908,4.2208-15.6328
		c0-5.7736-0.9336-10.6524-2.8204-14.5508c-1.924-3.9572-4.6112-7.0976-8.0624-9.4608c-3.4844-2.3636-7.6116-4.086-12.4492-5.1172
		C67.9824,0.508,62.6564,0,56.746,0H0v124.0272h58.3828c5.5312,0,10.9296-0.6992,16.1348-2.0856
		c5.25-1.3908,9.9376-3.5196,14.0352-6.426c4.0508-2.8908,7.3436-6.6248,9.7556-11.2384c2.3968-4.5508,3.596-9.9688,3.596-16.2536
		c0-7.762-1.836-14.3828-5.588-19.9144C92.5916,62.6172,86.9608,58.758,79.3768,56.5584z M24,20h25.9316
		c2.4064,0,4.744,0.164,6.994,0.59c2.266,0.3828,4.2364,1.0856,5.9748,2.1052c1.754,0.9768,3.1348,2.3752,4.1836,4.164
		c1.0136,1.7932,1.5216,4.098,1.5216,6.8868c0,5.0236-1.5216,8.6796-4.6448,10.8984C60.8068,46.8908,56.8204,48,52,48H24V20z
		 M70.4356,95.1916c-1.0956,2.2068-2.5996,3.9452-4.424,5.2148c-1.8124,1.3164-3.9568,2.2108-6.3944,2.7732
		C57.2284,103.746,54.6756,104,52,104H24V68h28.5372c5.8516,0,10.6072,1.4256,14.1736,4.2892
		c3.5508,2.91,5.3516,7.6952,5.3516,14.4256C72.0624,90.1524,71.5372,93,70.4356,95.1916z"/>
	<path fill="#4A8F9E" d="M201.3244,64.6564c-1.6136-6.1836-4.2072-11.6916-7.8516-16.508c-3.6368-4.828-8.2812-8.6876-13.93-11.5312
		c-5.6756-2.8828-12.3044-4.3048-19.8632-4.3048c-6.836,0-13.0272,1.1876-18.6288,3.5432
		c-5.6056,2.3672-10.416,5.6016-14.4824,9.7028c-4.0468,4.0784-7.1288,8.9416-9.3556,14.5744
		c-2.1912,5.6252-3.2988,11.6992-3.2988,18.2032c0,6.7224,1.078,12.9376,3.2112,18.5468c2.156,5.6328,5.1696,10.4376,9.07,14.492
		c3.9924,4.0472,8.748,7.1448,14.43,9.3596c5.6892,2.1836,12.0192,3.2928,19.0544,3.2928c10.1132,0,18.7736-2.2536,25.8788-6.7732
		c7.1916-4.5,12.4552-11.9804,15.9356-22.4492h-21.6188c-0.8324,2.6912-3.002,5.2888-6.5568,7.7108
		c-3.584,2.4296-7.8632,3.6484-12.8104,3.6484c-6.8848,0-12.1996-1.7576-15.8772-5.254c-3.6836-3.496-6.0684-10.0036-6.0684-16.8828
		h64.4768C203.498,77.2736,202.9336,70.832,201.3244,64.6564z M138.5624,68.3124c0.1056-1.8204,0.4844-3.8828,1.1132-6.16
		c0.6292-2.336,1.7072-4.5196,3.2872-6.586c1.6036-2.0392,3.678-3.7616,6.2248-5.1524c2.5936-1.406,5.8416-2.1016,9.7576-2.1016
		c6.0332,0,10.9688,1.832,13.8828,5.2032c2.9316,3.41,5.0664,8.246,5.6604,14.7968H138.5624z"/>
	<rect x="132" y="8" fill="#4A8F9E" width="52" height="12"/>
</g>
</svg>
