<?xml version="1.0" encoding="utf-8"?>
<!-- Generator: Adobe Illustrator 19.2.0, SVG Export Plug-In . SVG Version: 6.00 Build 0)  -->
<svg version="1.1" id="envelopestar" xmlns="http://www.w3.org/2000/svg" xmlns:xlink="http://www.w3.org/1999/xlink" x="0px"
	 y="0px" viewBox="0 0 228 160" enable-background="new 0 0 228 160" xml:space="preserve">
<g>
	<path fill="#FCD1C0" d="M102,106c-0.8165,0-1.6289-0.25-2.3245-0.746L8,39.7696v106.574l56.3711-56.3708
		c1.5624-1.5628,4.0936-1.5628,5.656,0c1.5628,1.5624,1.5628,4.0936,0,5.656L13.6563,152h176.6872l-56.3708-56.3712
		c-1.5628-1.5624-1.5628-4.0936,0-5.656c1.5624-1.5628,4.0936-1.5628,5.656,0L196,146.3436V59.8984
		c-6.8009-0.4532-12.9765-3.168-17.7969-7.414l-73.8788,52.7696C103.6287,105.75,102.8163,106,102,106z"/>
	<path fill="#FCD1C0" d="M102,97.086l70.9255-50.6604c-2.0504-3.1208-3.5504-6.6404-4.32-10.4256H16.4803L102,97.086z"/>
	<path fill="#E1AD99" d="M198,60c-0.6757,0-1.336-0.0584-2-0.1016v86.4452l-56.3713-56.3708c-1.5624-1.5628-4.0936-1.5628-5.656,0
		c-1.5628,1.5624-1.5628,4.0936,0,5.656L190.3435,152H13.6563l56.3708-56.3712c1.5628-1.5624,1.5628-4.0936,0-5.656
		c-1.5624-1.5628-4.0936-1.5628-5.656,0L8,146.3436V39.7696l91.6755,65.4844C100.3711,105.75,101.1835,106,102,106
		c0.8163,0,1.6287-0.25,2.3243-0.746l73.8788-52.7696c-2.0156-1.7772-3.7968-3.8048-5.2776-6.0588L102,97.086L16.4803,36h152.1252
		C168.2107,34.0624,168,32.0548,168,30c0-0.6756,0.0583-1.336,0.1015-2H4c-0.1133,0-0.2073,0.0548-0.3205,0.0624
		c-0.2696,0.0236-0.5232,0.082-0.7812,0.1604c-0.254,0.074-0.4884,0.1484-0.7148,0.2656c-0.2148,0.1092-0.4024,0.25-0.5936,0.4024
		c-0.2268,0.1716-0.4336,0.3512-0.6172,0.574c-0.0664,0.078-0.1644,0.1212-0.2268,0.2108c-0.0819,0.1172-0.0976,0.254-0.168,0.3752
		c-0.1364,0.242-0.2499,0.4804-0.336,0.75c-0.0819,0.2616-0.1288,0.5156-0.156,0.7812C0.0703,31.7264,0,31.8516,0,32v124
		c0,0.5196,0.1055,1.0392,0.3083,1.5272c0.4064,0.9808,1.1837,1.758,2.1644,2.1644C2.9607,159.8944,3.4803,160,4,160h196
		c0.5195,0,1.0391-0.1056,1.5271-0.3084c0.9809-0.4064,1.758-1.1836,2.1644-2.1644C203.8943,157.0392,204,156.5196,204,156V59.3944
		C202.0623,59.7892,200.0547,60,198,60z"/>
	<path fill="#FE8657" d="M228,30c0-16.5428-13.4573-30-30-30c-15.8673,0-28.8633,12.3908-29.8985,28
		C168.0583,28.664,168,29.3244,168,30c0,2.0548,0.2107,4.0624,0.6055,6c0.7696,3.7852,2.2696,7.3048,4.32,10.4256
		c1.4808,2.254,3.262,4.2816,5.2776,6.0588c4.8204,4.246,10.996,6.9608,17.7969,7.414C196.664,59.9416,197.3243,60,198,60
		c2.0547,0,4.0623-0.2108,6-0.6056C217.6755,56.6092,228,44.4884,228,30z M214.1091,28.5352l-5.156,5.0232l1.2189,7.094
		c0.2575,1.5-0.3597,3.0156-1.5901,3.91c-0.6952,0.508-1.5236,0.7656-2.3516,0.7656c-0.6368,0-1.2772-0.1524-1.8632-0.4608
		L198,41.5196l-6.3673,3.3476c-1.3476,0.7148-2.9844,0.5976-4.2148-0.3048c-1.2304-0.8944-1.8476-2.41-1.5899-3.91l1.2187-7.094
		l-5.156-5.0232c-1.09-1.0624-1.4808-2.6524-1.012-4.1016c0.4728-1.4452,1.7228-2.5,3.2304-2.7188l7.1212-1.0352l3.1836-6.4492
		c1.344-2.7344,5.828-2.7344,7.172,0l3.1836,6.4492l7.1212,1.0352c1.5076,0.2188,2.7576,1.2736,3.2304,2.7188
		C215.5899,25.8828,215.1991,27.4728,214.1091,28.5352z"/>
	<path fill="#FFDC82" d="M211.8907,21.7148l-7.1212-1.0352l-3.1836-6.4492c-1.344-2.7344-5.828-2.7344-7.172,0l-3.1836,6.4492
		l-7.1212,1.0352c-1.5076,0.2188-2.7576,1.2736-3.2304,2.7188c-0.4688,1.4492-0.078,3.0392,1.012,4.1016l5.156,5.0232l-1.2187,7.094
		c-0.2577,1.5,0.3595,3.0156,1.5899,3.91c1.2304,0.9024,2.8672,1.0196,4.2148,0.3048L198,41.5196l6.3671,3.3476
		c0.586,0.3084,1.2264,0.4608,1.8632,0.4608c0.828,0,1.6564-0.2576,2.3516-0.7656c1.2304-0.8944,1.8476-2.41,1.5901-3.91
		l-1.2189-7.094l5.156-5.0232c1.09-1.0624,1.4808-2.6524,1.012-4.1016C214.6483,22.9884,213.3983,21.9336,211.8907,21.7148z"/>
</g>
</svg>
